<?xml version="1.0" standalone="no"?>
<!DOCTYPE svg PUBLIC "-//W3C//DTD SVG 20010904//EN"
 "http://www.w3.org/TR/2001/REC-SVG-20010904/DTD/svg10.dtd">
<svg version="1.0" xmlns="http://www.w3.org/2000/svg"
 width="260.000000pt" height="260.000000pt" viewBox="0 0 260.000000 260.000000"
 preserveAspectRatio="xMidYMid meet">
<metadata>
Created by potrace 1.11, written by Peter Selinger 2001-2013
</metadata>
<g transform="translate(0.000000,260.000000) scale(0.100000,-0.100000)"
fill="#000000" stroke="none">
<path d="M1276 2296 c-21 -24 -54 -49 -72 -57 -19 -7 -34 -16 -34 -20 0 -4 -8
-9 -17 -13 -10 -3 -25 -9 -33 -14 -43 -25 -63 -32 -94 -32 -19 0 -37 -4 -40
-9 -13 -21 -300 -41 -319 -22 -6 6 -26 11 -43 11 -18 0 -36 5 -39 10 -3 6 -19
10 -36 10 -16 0 -29 5 -29 10 0 6 -7 10 -16 10 -8 0 -36 12 -60 26 -25 15 -46
25 -47 23 -2 -2 -9 -17 -16 -34 -7 -16 -17 -38 -22 -47 -5 -10 -9 -29 -9 -42
0 -14 -4 -28 -10 -31 -5 -3 -10 -16 -10 -27 0 -12 -5 -36 -11 -53 -11 -30 -10
-34 18 -61 17 -16 42 -49 55 -74 24 -44 25 -52 31 -311 5 -199 10 -276 22
-308 8 -24 15 -59 15 -77 0 -19 5 -34 10 -34 6 0 10 -18 10 -39 0 -22 5 -43
10 -46 6 -3 10 -17 10 -30 0 -13 5 -27 10 -30 6 -3 10 -17 10 -31 0 -13 5 -24
10 -24 6 0 10 -9 10 -20 0 -11 4 -20 9 -20 5 0 11 -8 15 -17 7 -21 45 -86 55
-93 3 -3 13 -18 21 -35 27 -54 227 -244 258 -245 6 0 12 -3 12 -8 0 -4 8 -12
19 -17 10 -6 41 -22 69 -37 28 -16 58 -28 67 -28 8 0 15 -4 15 -10 0 -5 11
-10 25 -10 14 0 25 -4 25 -10 0 -5 9 -10 20 -10 11 0 20 -4 20 -10 0 -5 13
-10 29 -10 16 0 33 -6 39 -13 6 -7 27 -19 47 -27 19 -7 35 -17 35 -22 0 -4 9
-8 20 -8 11 0 20 4 20 9 0 5 20 17 45 27 25 9 45 21 45 25 0 5 14 9 30 9 17 0
30 5 30 10 0 6 7 10 15 10 8 0 30 9 50 20 20 11 42 20 50 20 8 0 15 5 15 10 0
6 7 10 15 10 15 0 63 27 75 41 3 3 20 12 38 20 17 8 32 17 32 21 0 5 4 8 9 8
21 0 170 144 207 200 15 22 30 40 35 40 4 0 13 16 20 35 7 19 17 35 21 35 4 0
8 9 8 20 0 11 3 20 8 20 8 0 32 49 32 67 0 7 3 13 8 13 12 0 51 120 59 183 3
20 9 37 14 37 5 0 9 22 9 49 0 28 5 53 10 56 6 4 10 100 10 256 0 237 9 329
32 329 5 0 8 8 8 18 0 9 16 31 35 47 28 24 35 37 35 67 0 20 -4 40 -10 43 -5
3 -10 16 -10 27 0 28 -22 90 -37 106 -7 7 -13 19 -13 27 0 7 -7 15 -15 19 -17
6 -65 -13 -65 -26 0 -4 -9 -8 -20 -8 -11 0 -20 -4 -20 -10 0 -5 -15 -10 -34
-10 -19 0 -38 -4 -41 -10 -3 -5 -24 -10 -45 -10 -21 0 -42 -4 -45 -10 -8 -12
-217 -13 -231 -1 -5 5 -27 11 -49 14 -75 10 -123 24 -165 48 -8 5 -31 16 -50
26 -19 9 -41 23 -48 29 -6 7 -21 16 -32 19 -11 3 -20 11 -20 16 0 5 -6 9 -13
9 -8 0 -20 11 -27 25 -20 37 -49 31 -94 -19z m96 -26 c7 -11 18 -20 25 -20 7
0 13 -3 13 -7 0 -5 26 -21 58 -38 31 -16 59 -33 60 -37 2 -5 15 -8 28 -8 13 0
24 -4 24 -10 0 -5 11 -10 24 -10 14 0 28 -4 31 -10 3 -5 23 -10 44 -10 20 0
42 -5 48 -11 6 -6 64 -8 164 -6 163 5 236 13 245 28 3 5 16 9 30 9 13 0 24 5
24 10 0 6 9 10 20 10 11 0 20 5 20 10 0 6 9 10 20 10 13 0 20 -7 20 -20 0 -11
4 -20 9 -20 5 0 11 -10 14 -22 3 -13 13 -49 21 -81 16 -62 13 -87 -10 -87 -8
0 -14 -4 -14 -8 0 -5 -8 -17 -18 -28 -35 -38 -43 -93 -47 -314 -4 -258 -23
-430 -53 -487 -7 -12 -12 -33 -12 -47 0 -14 -4 -26 -10 -26 -5 0 -10 -9 -10
-20 0 -11 -4 -28 -9 -38 -5 -9 -19 -39 -32 -67 -27 -57 -70 -128 -81 -133 -5
-2 -8 -8 -8 -13 0 -14 -30 -49 -105 -122 -97 -94 -113 -107 -125 -107 -5 0
-10 -4 -10 -10 0 -5 -9 -10 -19 -10 -11 0 -21 -3 -23 -7 -4 -10 -69 -48 -138
-79 -30 -14 -63 -30 -72 -35 -10 -5 -25 -9 -33 -9 -8 0 -15 -4 -15 -10 0 -5
-9 -10 -20 -10 -11 0 -20 -4 -20 -10 0 -5 -11 -10 -24 -10 -13 0 -29 -7 -36
-15 -16 -19 -44 -19 -64 0 -8 8 -21 15 -30 15 -8 0 -17 4 -20 8 -3 4 -28 14
-55 22 -28 7 -51 17 -51 22 0 4 -7 8 -15 8 -7 0 -38 14 -67 31 -29 16 -61 33
-70 36 -10 3 -18 9 -18 14 0 5 -9 9 -20 9 -11 0 -20 5 -20 10 0 6 -7 10 -15
10 -8 0 -15 5 -15 10 0 6 -7 10 -15 10 -18 0 -36 15 -138 115 -45 44 -89 94
-97 110 -8 17 -17 32 -20 35 -3 3 -12 19 -20 35 -8 17 -17 32 -20 35 -13 12
-40 60 -40 70 0 6 -9 30 -20 52 -11 23 -20 54 -20 70 0 15 -4 28 -9 28 -9 0
-18 41 -28 125 -3 28 -9 55 -14 61 -5 6 -11 130 -14 275 -3 147 -10 268 -15
273 -6 6 -10 20 -10 33 0 13 -4 23 -10 23 -5 0 -10 7 -10 16 0 9 -13 30 -30
46 -32 30 -35 43 -21 80 10 25 27 87 36 131 5 25 35 40 35 17 0 -5 9 -10 19
-10 11 0 23 -4 26 -10 3 -5 19 -10 35 -10 16 0 31 -4 34 -9 10 -15 77 -23 240
-28 103 -2 163 0 170 7 5 5 25 10 42 10 18 0 36 5 39 10 3 6 17 10 30 10 13 0
27 5 30 10 3 6 17 10 30 10 13 0 25 3 27 8 4 10 85 62 97 62 5 0 11 3 13 8 6
15 63 51 80 52 10 0 23 -9 30 -20z"/>
<path d="M1300 2240 c-14 -16 -33 -30 -42 -30 -10 0 -18 -4 -18 -10 0 -5 -7
-10 -15 -10 -8 0 -15 -4 -15 -8 0 -11 -110 -62 -133 -62 -9 0 -17 -4 -17 -10
0 -5 -18 -10 -39 -10 -22 0 -43 -4 -46 -10 -8 -13 -345 -14 -377 -1 -13 5 -43
14 -68 21 -25 7 -53 16 -62 21 -33 17 -58 11 -58 -14 0 -13 -4 -27 -9 -33 -5
-5 -11 -33 -15 -61 -6 -48 -4 -55 19 -75 14 -12 25 -30 25 -40 0 -10 4 -18 8
-18 25 0 36 -86 43 -340 8 -273 14 -358 30 -375 5 -5 9 -24 9 -41 0 -18 5 -36
10 -39 5 -3 10 -16 10 -28 0 -12 16 -55 35 -94 19 -40 35 -77 35 -83 0 -5 5
-10 10 -10 6 0 10 -9 10 -20 0 -11 3 -20 8 -20 4 0 13 -12 19 -27 16 -34 45
-70 123 -148 68 -68 87 -85 95 -85 3 0 15 -9 27 -20 12 -11 28 -20 35 -20 7 0
13 -4 13 -8 0 -4 20 -16 45 -26 25 -11 45 -22 45 -25 0 -8 50 -31 67 -31 7 0
13 -4 13 -10 0 -5 11 -10 25 -10 14 0 25 -4 25 -10 0 -5 9 -10 20 -10 11 0 20
-4 20 -10 0 -5 6 -10 14 -10 7 0 37 -10 65 -22 49 -20 55 -20 79 -6 15 8 39
18 55 22 15 3 27 11 27 16 0 6 11 10 24 10 14 0 28 5 31 10 3 5 17 10 31 10
13 0 24 5 24 10 0 6 9 10 20 10 11 0 20 5 20 10 0 6 6 10 14 10 7 0 19 7 26
15 7 8 21 15 31 15 11 0 19 3 19 8 0 4 14 13 31 21 29 13 53 31 110 83 10 10
23 18 27 18 11 0 92 88 92 100 0 5 8 15 18 22 11 7 25 24 32 38 7 14 16 27 20
30 12 9 60 100 60 115 0 8 5 15 10 15 6 0 10 9 10 19 0 11 5 23 10 26 6 3 10
19 10 35 0 16 5 32 10 35 6 3 10 19 10 34 0 15 4 31 10 37 24 24 34 122 37
369 2 149 8 264 13 269 6 6 10 27 10 48 0 21 5 38 10 38 6 0 10 9 10 20 0 11
5 20 10 20 6 0 10 9 10 19 0 11 12 29 26 40 l26 21 -19 72 c-21 79 -41 100
-73 80 -11 -6 -29 -12 -39 -12 -11 0 -23 -4 -26 -10 -3 -5 -21 -10 -40 -10
-19 0 -37 -4 -40 -10 -3 -5 -39 -10 -79 -10 -43 0 -77 -5 -84 -12 -10 -10 -17
-10 -32 0 -11 6 -51 12 -89 12 -39 0 -73 5 -76 10 -3 6 -21 10 -40 10 -19 0
-37 5 -40 10 -3 6 -15 10 -26 10 -10 0 -27 4 -37 9 -9 5 -43 21 -74 37 -32 16
-58 32 -58 36 0 4 -6 8 -12 8 -7 1 -29 14 -48 30 -19 17 -37 30 -40 30 -3 0
-16 -14 -30 -30z m103 -405 c15 -13 27 -31 27 -39 0 -8 5 -18 10 -21 6 -3 10
-25 10 -49 0 -23 5 -47 11 -53 9 -9 9 -20 -1 -42 -7 -17 -16 -31 -21 -31 -5 0
-9 -16 -9 -36 0 -25 7 -41 23 -55 30 -25 49 -24 93 6 28 19 50 25 90 25 30 0
54 5 54 10 0 6 9 10 20 10 11 0 20 5 20 10 0 6 13 10 29 10 39 0 54 20 45 65
-8 44 -25 53 -59 31 -35 -23 -92 -21 -105 3 -30 57 10 107 107 130 61 15 79 7
158 -76 73 -75 81 -87 96 -129 8 -22 20 -45 27 -52 21 -23 15 -96 -10 -124
-27 -28 -69 -48 -103 -48 -14 0 -25 -4 -25 -8 0 -16 -37 -52 -54 -52 -9 0 -16
-4 -16 -10 0 -5 -25 -10 -55 -10 -48 0 -55 -3 -55 -19 0 -11 -4 -23 -10 -26
-5 -3 -10 -13 -10 -22 0 -9 -8 -23 -19 -32 -10 -9 -21 -25 -25 -36 -3 -11 -21
-36 -39 -56 -70 -79 -67 -73 -67 -173 l0 -93 -42 -20 c-24 -11 -56 -26 -71
-32 -35 -14 -164 -15 -172 -1 -3 5 -17 10 -31 10 -25 0 -37 8 -74 44 -23 23
-34 100 -21 145 12 38 11 39 -51 104 -21 22 -38 46 -38 53 0 8 -4 14 -9 14 -8
0 -55 87 -65 123 -4 13 -16 17 -56 17 -27 0 -50 5 -50 10 0 6 -7 10 -16 10 -9
0 -29 14 -44 30 -15 17 -34 30 -42 30 -8 0 -35 7 -61 16 -34 11 -47 21 -47 35
0 10 -4 19 -10 19 -13 0 -13 77 0 85 5 3 10 16 10 28 0 12 9 33 20 47 11 14
20 30 20 36 0 15 63 84 77 84 5 0 15 11 22 24 7 13 24 30 37 37 13 7 24 16 24
21 0 11 66 10 88 -1 9 -6 36 -18 60 -28 l43 -17 -3 -51 -3 -50 -38 -3 c-23 -2
-48 3 -62 12 -30 20 -45 20 -45 1 0 -8 -4 -15 -10 -15 -5 0 -10 -18 -10 -40
l0 -40 40 0 c22 0 40 -4 40 -10 0 -5 7 -10 15 -10 8 0 15 -4 15 -10 0 -5 24
-10 54 -10 51 0 116 -24 116 -42 0 -16 53 -8 66 10 16 21 18 108 3 118 -7 4
-8 20 -4 43 3 20 8 55 12 79 8 62 57 112 109 112 27 -1 48 -8 67 -25z"/>
</g>
</svg>
